<?xml version="1.0" encoding="utf-8"?>
<!-- Generator: Adobe Illustrator 19.1.0, SVG Export Plug-In . SVG Version: 6.00 Build 0)  -->
<svg version="1.1" id="Calque_1" xmlns="http://www.w3.org/2000/svg" xmlns:xlink="http://www.w3.org/1999/xlink" x="0px" y="0px"
	 viewBox="0 0 30 40" style="enable-background:new 0 0 30 40;" xml:space="preserve">
<style type="text/css">
	.st0{fill:#8E8EF4;}
	.st1{fill:#130084;}
	.st2{fill:#FFFFFF;}
</style>
<g>
	<path class="st0" d="M25.3,21.4l-10.4,18L4.7,21.6C2.5,17.7,1.8,13.1,3,8.8c1.2-4.4,5.4-8.2,12.1-8.2s11.2,4.4,12.2,9.1
		C28.1,13.7,27.3,17.9,25.3,21.4z"/>
	<g>
		<path class="st1" d="M20.9,7.6h-0.1V6.3c0-0.7-0.6-1.3-1.3-1.3c-0.7,0-1.3,0.6-1.3,1.3v1.3h-1.9V6.3C16.2,5.6,15.7,5,15,5
			c-0.7,0-1.3,0.6-1.3,1.3v1.3h-1.9V6.3c0-0.7-0.6-1.3-1.3-1.3C9.8,5,9.2,5.6,9.2,6.3v1.3H9c-1.3,0-2.4,1.1-2.4,2.4v9.8
			c0,1.3,1.1,2.4,2.4,2.4h11.8c1.3,0,2.4-1.1,2.4-2.4V10C23.3,8.7,22.2,7.6,20.9,7.6z M9,8.3h0.1v1c0,0.7,0.6,1.3,1.3,1.3
			c0.7,0,1.3-0.6,1.3-1.3v-1h1.9v1c0,0.7,0.6,1.3,1.3,1.3c0.7,0,1.3-0.6,1.3-1.3v-1h1.9v1c0,0.7,0.6,1.3,1.3,1.3
			c0.7,0,1.3-0.6,1.3-1.3v-1h0.1c0.9,0,1.7,0.8,1.7,1.7v2.1H7.4V10C7.4,9.1,8.1,8.3,9,8.3z"/>
		<path class="st2" d="M20.9,21.5H9c-0.9,0-1.7-0.8-1.7-1.7v-7h15.2v7C22.5,20.8,21.8,21.5,20.9,21.5z"/>
		<path class="st1" d="M9.2,19.9h11.6v-5.8H9.2V19.9z"/>
		<rect x="9.9" y="17.4" class="st2" width="1.5" height="1.8"/>
		<rect x="16.5" y="17.4" class="st0" width="1.4" height="1.8"/>
		<rect x="14.3" y="17.4" class="st2" width="1.4" height="1.8"/>
		<rect x="16.5" y="14.8" class="st2" width="1.4" height="1.9"/>
		<rect x="14.3" y="14.8" class="st2" width="1.4" height="1.9"/>
		<rect x="12.2" y="14.8" class="st0" width="1.4" height="1.9"/>
		<rect x="12.2" y="17.4" class="st2" width="1.4" height="1.8"/>
		<polygon class="st2" points="18.6,19.2 18.6,17.4 20.1,17.4 20.1,19.2 18.6,19.2 		"/>
		<rect x="18.6" y="14.8" class="st0" width="1.5" height="1.9"/>
		<rect x="9.9" y="14.8" class="st2" width="1.5" height="1.9"/>
	</g>
</g>
</svg>
