<?xml version="1.0" encoding="utf-8"?>
<!-- Generator: Adobe Illustrator 19.1.0, SVG Export Plug-In . SVG Version: 6.00 Build 0)  -->
<svg version="1.1" id="Calque_1" xmlns="http://www.w3.org/2000/svg" xmlns:xlink="http://www.w3.org/1999/xlink" x="0px" y="0px"
	 viewBox="0 0 30 40" style="enable-background:new 0 0 30 40;" xml:space="preserve">
<style type="text/css">
	.st0{fill:#8E8EF4;}
	.st1{fill:#130084;}
	.st2{fill:#FFFFFF;}
</style>
<g>
	<path class="st0" d="M25.7,21.3L15.3,39.2L5.1,21.6c-2.2-3.8-2.9-8.4-1.7-12.7c1.2-4.4,5.4-8.1,12-8.1s11.1,4.4,12.1,9.1
		C28.4,13.8,27.7,17.9,25.7,21.3z"/>
	<g>
		<g>
			<g>
				<path class="st1" d="M24,8.4H7.8c-0.2,0-0.4,0.2-0.4,0.4v8.8c0,0.2,0.2,0.4,0.4,0.4H10c0.1,0.3,0.2,0.5,0.4,0.8
					c-0.9,0.5-1.6,1.5-1.6,2.6v1.1c0,0.2,0.2,0.4,0.4,0.4c0.2,0,0.4-0.2,0.4-0.4v-1.1c0-1.2,1-2.2,2.2-2.2h1.1
					c0.6,0,1.1,0.2,1.5,0.6c0,0,0.1,0.1,0.1,0.1c0.4,0.4,0.6,0.9,0.6,1.5v1.1c0,0.2,0.2,0.4,0.4,0.4c0.2,0,0.4-0.2,0.4-0.4v-1.1
					c0-0.7-0.2-1.3-0.6-1.8c0.4-0.6,1.1-0.9,1.8-0.9h1.1c1.2,0,2.2,1,2.2,2.2v1.1c0,0.2,0.2,0.4,0.4,0.4c0.2,0,0.4-0.2,0.4-0.4v-1.1
					c0-1.2-0.8-2.3-1.8-2.7c0-0.1,0.1-0.1,0.1-0.2H24c0.2,0,0.4-0.2,0.4-0.4V8.7C24.3,8.5,24.2,8.4,24,8.4z M11.7,18.4
					c-0.2,0-0.4,0-0.6,0.1c-0.3-0.4-0.5-1-0.5-1.4c0-0.8,0.7-1.5,1.5-1.5s1.5,0.7,1.5,1.5c0,0.4-0.2,1-0.5,1.4c-0.1,0-0.2,0-0.4,0
					H11.7z M14.5,19c-0.2-0.2-0.4-0.3-0.7-0.4c0.1-0.2,0.2-0.4,0.3-0.7h1.2c0,0.1,0.1,0.2,0.2,0.3C15.1,18.4,14.8,18.7,14.5,19z
					 M17.9,17.9h-1.1c-0.2,0-0.4,0-0.6,0.1c-0.3-0.4-0.5-1-0.5-1.4c0-0.8,0.7-1.5,1.5-1.5s1.5,0.7,1.5,1.5c0,0.4-0.2,1-0.5,1.4
					C18.2,17.9,18,17.9,17.9,17.9z"/>
			</g>
			<path class="st2" d="M23.6,17.2h-4.3c0.1-0.2,0.1-0.5,0.1-0.7c0-1.2-1-2.2-2.2-2.2s-2.2,1-2.2,2.2c0,0.2,0,0.4,0.1,0.7h-0.8
				c0-0.1,0-0.1,0-0.2c0-1.2-1-2.2-2.2-2.2s-2.2,1-2.2,2.2c0,0.1,0,0.1,0,0.2H8.1V9.1h15.5V17.2z"/>
			<path class="st1" d="M14.3,12.2h2.4c0.2,0,0.4-0.2,0.4-0.4s-0.2-0.4-0.4-0.4h-2.4c-0.2,0-0.4,0.2-0.4,0.4S14.1,12.2,14.3,12.2z"
				/>
			<path class="st1" d="M14.3,13.1h2.4c0.2,0,0.4-0.2,0.4-0.4s-0.2-0.4-0.4-0.4h-2.4c-0.2,0-0.4,0.2-0.4,0.4S14.1,13.1,14.3,13.1z"
				/>
			<path class="st1" d="M19.8,15.5c0,0.2,0.2,0.4,0.4,0.4h2.4c0.2,0,0.4-0.2,0.4-0.4s-0.2-0.4-0.4-0.4h-2.4
				C20,15.2,19.8,15.4,19.8,15.5z"/>
			<path class="st1" d="M17.7,12c0,0.2-0.1,0.3-0.1,0.5c0,1.2,1,2.2,2.2,2.2c1.2,0,2.2-1,2.2-2.2c0-1.2-1-2.2-2.2-2.2
				c-0.2-0.4-0.7-0.7-1.2-0.7c-0.8,0-1.4,0.6-1.4,1.4C17.2,11.3,17.4,11.7,17.7,12z M18.6,11.6 M18.6,10.2c0.2,0,0.3,0.1,0.5,0.2
				c-0.4,0.2-0.8,0.4-1.1,0.8c0-0.1-0.1-0.2-0.1-0.3C17.9,10.5,18.2,10.2,18.6,10.2z"/>
			<path class="st1" d="M11.9,14.1c0.1,0.1,0.2,0.1,0.2,0.1c0.1,0,0.2,0,0.2-0.1l1.2-1.2c0.1-0.1,0.1-0.4,0-0.5l-1.2-1.2
				c-0.1-0.1-0.4-0.1-0.5,0l-1.2,1.2c-0.1,0.1-0.1,0.4,0,0.5L11.9,14.1z M12.2,11.8l0.7,0.7l-0.7,0.7l-0.7-0.7L12.2,11.8z"/>
			<path class="st0" d="M21.3,12.5c0,0.8-0.7,1.5-1.5,1.5c-0.8,0-1.5-0.7-1.5-1.5c0-0.1,0-0.1,0-0.2c0.1,0,0.2,0,0.3,0
				c0.7,0,1.4-0.6,1.4-1.3C20.7,11.1,21.3,11.7,21.3,12.5z"/>
			<path class="st0" d="M18.6,11.6C18.6,11.6,18.6,11.6,18.6,11.6c0.2-0.2,0.4-0.4,0.7-0.5C19.2,11.4,18.9,11.6,18.6,11.6z"/>
		</g>
	</g>
</g>
</svg>
