<?xml version="1.0" encoding="utf-8"?>
<!-- Generator: Adobe Illustrator 19.1.0, SVG Export Plug-In . SVG Version: 6.00 Build 0)  -->
<svg version="1.1" id="Calque_1" xmlns="http://www.w3.org/2000/svg" xmlns:xlink="http://www.w3.org/1999/xlink" x="0px" y="0px"
	 viewBox="0 0 30 40" style="enable-background:new 0 0 30 40;" xml:space="preserve">
<style type="text/css">
	.st0{fill:#130084;}
	.st1{fill:#8E8EF4;}
	.st2{fill:#FFFFFF;}
</style>
<g>
	<path class="st0" d="M25.2,21.3L14.9,39.2L4.8,21.6c-2.2-3.8-2.9-8.4-1.7-12.6c1.2-4.4,5.4-8.1,12-8.1s11.1,4.4,12.1,9.1
		C28,13.8,27.2,17.9,25.2,21.3z"/>
	<g>
		<path class="st1" d="M15,23.2c-5.4,0-9.8-4.4-9.8-9.8S9.6,3.7,15,3.7s9.8,4.4,9.8,9.8S20.4,23.2,15,23.2z"/>
		<path class="st2" d="M15,4.5c-4.9,0-8.9,4-8.9,8.9s4,8.9,8.9,8.9s8.9-4,8.9-8.9S19.9,4.5,15,4.5z"/>
		<path class="st1" d="M15,15.5c-1.1,0-2-0.9-2-2c0-1.1,0.9-2,2-2c1.1,0,2,0.9,2,2C17,14.6,16.1,15.5,15,15.5z"/>
		<g>
			<g>
				<path class="st1" d="M16.5,10.8c-0.1,0-0.1,0-0.2,0c-0.8-0.4-1.9-0.4-2.7,0c-0.1,0.1-0.2,0.1-0.3,0c-0.1,0-0.2-0.1-0.2-0.2l-2-4
					C11,6.4,11,6.1,11.2,6c1.2-0.6,2.4-0.9,3.8-0.9s2.6,0.3,3.8,0.9C19,6.1,19,6.4,18.9,6.6l-2,4c0,0.1-0.1,0.2-0.2,0.2
					C16.6,10.8,16.6,10.8,16.5,10.8z"/>
			</g>
			<g>
				<path class="st1" d="M15,21.8c-1.3,0-2.6-0.3-3.8-0.9c-0.2-0.1-0.3-0.3-0.2-0.5l2-4c0-0.1,0.1-0.2,0.2-0.2c0.1,0,0.2,0,0.3,0
					c0.8,0.4,1.9,0.4,2.7,0c0.1,0,0.2-0.1,0.3,0c0.1,0,0.2,0.1,0.2,0.2l2,4c0.1,0.2,0,0.4-0.2,0.5C17.6,21.5,16.3,21.8,15,21.8z"/>
			</g>
		</g>
		<g>
			<g>
				<path class="st1" d="M22.1,17.5c-0.1,0-0.1,0-0.2,0l-4-2c-0.1,0-0.2-0.1-0.2-0.2c0-0.1,0-0.2,0-0.3c0.2-0.4,0.3-0.9,0.3-1.3
					c0-0.5-0.1-0.9-0.3-1.4c0-0.1-0.1-0.2,0-0.3s0.1-0.2,0.2-0.2l4-2c0.2-0.1,0.4,0,0.5,0.2c0.6,1.2,0.9,2.4,0.9,3.8
					c0,1.3-0.3,2.6-0.9,3.8C22.4,17.4,22.2,17.5,22.1,17.5z"/>
			</g>
			<g>
				<path class="st1" d="M7.9,17.5c-0.1,0-0.3-0.1-0.4-0.2c-0.6-1.2-0.9-2.4-0.9-3.8c0-1.3,0.3-2.6,0.9-3.8c0.1-0.2,0.3-0.3,0.5-0.2
					l4,2c0.1,0,0.2,0.1,0.2,0.2c0,0.1,0,0.2,0,0.3C12.1,12.6,12,13,12,13.5c0,0.5,0.1,0.9,0.3,1.4c0,0.1,0.1,0.2,0,0.3
					c0,0.1-0.1,0.2-0.2,0.2l-4,2C8,17.5,8,17.5,7.9,17.5z"/>
			</g>
		</g>
		<path class="st1" d="M22.6,7.1c-0.5,0-1.2-0.2-1.9-0.5c-0.2-0.1-0.3-0.3-0.2-0.5c0.1-0.2,0.3-0.3,0.5-0.2c1,0.5,1.7,0.6,2.1,0.3
			c0.6-0.4,0.7-1.6,0.7-2c0-0.2,0.2-0.4,0.4-0.4c0.2,0,0.4,0.2,0.4,0.4c0,0.1,0.1,1.9-1.1,2.7C23.4,7,23,7.1,22.6,7.1z"/>
	</g>
	<path class="st0" d="M12,6.6l1.7,3.3c0.9-0.3,1.8-0.3,2.7,0L18,6.6C16.1,5.7,13.9,5.7,12,6.6z"/>
	<path class="st0" d="M18.6,14.8l3.3,1.7c0.4-1,0.6-2,0.6-3c0-1.1-0.2-2.1-0.6-3l-3.3,1.7c0.2,0.4,0.3,0.9,0.3,1.3
		C18.8,13.9,18.8,14.4,18.6,14.8z"/>
	<path class="st0" d="M12,20.4c1,0.4,2,0.6,3,0.6c1.1,0,2.1-0.2,3-0.6l-1.7-3.3c-0.9,0.3-1.8,0.3-2.7,0L12,20.4z"/>
	<path class="st0" d="M8.1,10.5c-0.4,1-0.6,2-0.6,3c0,1.1,0.2,2.1,0.6,3l3.3-1.7c-0.2-0.4-0.3-0.9-0.3-1.3c0-0.5,0.1-0.9,0.3-1.3
		L8.1,10.5z"/>
	<circle class="st2" cx="15" cy="13.5" r="1.2"/>
</g>
</svg>
