<?xml version="1.0" encoding="utf-8"?>
<!-- Generator: Adobe Illustrator 19.1.0, SVG Export Plug-In . SVG Version: 6.00 Build 0)  -->
<svg version="1.1" id="Calque_1" xmlns="http://www.w3.org/2000/svg" xmlns:xlink="http://www.w3.org/1999/xlink" x="0px" y="0px"
	 viewBox="0 0 30 40" style="enable-background:new 0 0 30 40;" xml:space="preserve">
<style type="text/css">
	.st0{fill:#130084;}
	.st1{fill:#8E8EF4;}
	.st2{fill:#FFFFFF;}
</style>
<g>
	<path class="st0" d="M25.2,21.3L14.9,39.2L4.8,21.6c-2.2-3.8-2.9-8.4-1.7-12.6c1.2-4.4,5.4-8.1,12-8.1s11.1,4.4,12.1,9.1
		C28,13.8,27.2,17.9,25.2,21.3z"/>
	<g>
		<path class="st1" d="M20.8,7.7h-0.1V6.4c0-0.7-0.6-1.3-1.3-1.3c-0.7,0-1.3,0.6-1.3,1.3v1.3h-1.9V6.4c0-0.7-0.6-1.3-1.3-1.3
			c-0.7,0-1.3,0.6-1.3,1.3v1.3h-1.9V6.4c0-0.7-0.6-1.3-1.3-1.3c-0.7,0-1.3,0.6-1.3,1.3v1.3H9.1c-1.3,0-2.4,1.1-2.4,2.4v9.7
			c0,1.3,1.1,2.4,2.4,2.4h11.7c1.3,0,2.4-1.1,2.4-2.4v-9.7C23.2,8.8,22.1,7.7,20.8,7.7z M9.1,8.4h0.1v1c0,0.7,0.6,1.3,1.3,1.3
			c0.7,0,1.3-0.6,1.3-1.3v-1h1.9v1c0,0.7,0.6,1.3,1.3,1.3c0.7,0,1.3-0.6,1.3-1.3v-1h1.9v1c0,0.7,0.6,1.3,1.3,1.3
			c0.7,0,1.3-0.6,1.3-1.3v-1h0.1c0.9,0,1.7,0.7,1.7,1.7v2.1H7.4v-2.1C7.4,9.2,8.2,8.4,9.1,8.4z"/>
		<path class="st2" d="M20.8,21.5H9.1c-0.9,0-1.7-0.7-1.7-1.7v-6.9h15.1v6.9C22.5,20.8,21.7,21.5,20.8,21.5z"/>
		<path class="st0" d="M9.2,19.9h11.5v-5.8H9.2V19.9z"/>
		<rect x="10" y="17.4" class="st2" width="1.5" height="1.8"/>
		<rect x="16.5" y="17.4" class="st1" width="1.4" height="1.8"/>
		<rect x="14.3" y="17.4" class="st2" width="1.4" height="1.8"/>
		<rect x="16.5" y="14.8" class="st2" width="1.4" height="1.9"/>
		<rect x="14.3" y="14.8" class="st2" width="1.4" height="1.9"/>
		<rect x="12.2" y="14.8" class="st1" width="1.4" height="1.9"/>
		<rect x="12.2" y="17.4" class="st2" width="1.4" height="1.8"/>
		<polygon class="st2" points="18.6,19.2 18.6,17.4 20.1,17.4 20.1,19.2 18.6,19.2 		"/>
		<rect x="18.6" y="14.8" class="st1" width="1.5" height="1.9"/>
		<rect x="10" y="14.8" class="st2" width="1.5" height="1.9"/>
	</g>
</g>
</svg>
