<?xml version="1.0" encoding="utf-8"?>
<!-- Generator: Adobe Illustrator 19.1.0, SVG Export Plug-In . SVG Version: 6.00 Build 0)  -->
<svg version="1.1" id="Calque_1" xmlns="http://www.w3.org/2000/svg" xmlns:xlink="http://www.w3.org/1999/xlink" x="0px" y="0px"
	 viewBox="0 0 30 40" style="enable-background:new 0 0 30 40;" xml:space="preserve">
<style type="text/css">
	.st0{fill:#3D38E8;}
	.st1{fill:#130084;}
	.st2{fill:#FFFFFF;}
</style>
<g>
	<path class="st0" d="M25.4,21.6L15,39.6L4.7,21.8C2.4,17.9,1.8,13.3,3,9c1.2-4.4,5.4-8.2,12.1-8.2S26.3,5.2,27.3,10
		C28.1,13.9,27.4,18.1,25.4,21.6z"/>
	<g>
		<g>
			<g>
				<path class="st1" d="M23.6,8.5H7.3c-0.2,0-0.4,0.2-0.4,0.4v8.9c0,0.2,0.2,0.4,0.4,0.4h2.3c0.1,0.3,0.2,0.5,0.4,0.8
					c-1,0.5-1.6,1.5-1.6,2.6v1.1c0,0.2,0.2,0.4,0.4,0.4C8.9,23,9,22.8,9,22.6v-1.1c0-1.2,1-2.2,2.2-2.2h1.1c0.6,0,1.1,0.2,1.5,0.6
					c0,0,0.1,0.1,0.1,0.1c0.4,0.4,0.6,0.9,0.6,1.5v1.1c0,0.2,0.2,0.4,0.4,0.4s0.4-0.2,0.4-0.4v-1.1c0-0.7-0.2-1.3-0.6-1.8
					c0.4-0.6,1.1-0.9,1.8-0.9h1.1c1.2,0,2.2,1,2.2,2.2v1.1c0,0.2,0.2,0.4,0.4,0.4s0.4-0.2,0.4-0.4V21c0-1.2-0.8-2.3-1.8-2.7
					c0-0.1,0.1-0.1,0.1-0.2h4.9c0.2,0,0.4-0.2,0.4-0.4V8.8C24,8.6,23.8,8.5,23.6,8.5z M11.3,18.6c-0.2,0-0.4,0-0.6,0.1
					c-0.3-0.4-0.5-1-0.5-1.4c0-0.8,0.7-1.5,1.5-1.5s1.5,0.7,1.5,1.5c0,0.4-0.2,1-0.5,1.4c-0.1,0-0.2,0-0.4,0H11.3z M14.1,19.2
					c-0.2-0.2-0.5-0.3-0.7-0.4c0.1-0.2,0.2-0.4,0.3-0.7H15c0.1,0.1,0.1,0.2,0.2,0.3C14.7,18.6,14.4,18.8,14.1,19.2z M17.5,18.1h-1.1
					c-0.2,0-0.4,0-0.6,0.1c-0.3-0.4-0.5-1-0.5-1.4c0-0.8,0.7-1.5,1.5-1.5c0.8,0,1.5,0.7,1.5,1.5c0,0.4-0.2,1-0.5,1.4
					C17.8,18.1,17.7,18.1,17.5,18.1z"/>
			</g>
			<path class="st2" d="M23.3,17.4H19c0.1-0.2,0.1-0.5,0.1-0.7c0-1.2-1-2.2-2.2-2.2c-1.2,0-2.2,1-2.2,2.2c0,0.2,0,0.4,0.1,0.7h-0.8
				c0-0.1,0-0.1,0-0.2c0-1.2-1-2.2-2.2-2.2s-2.2,1-2.2,2.2c0,0.1,0,0.1,0,0.2H7.6V9.2h15.6L23.3,17.4z"/>
			<path class="st1" d="M13.9,12.3h2.4c0.2,0,0.4-0.2,0.4-0.4s-0.2-0.4-0.4-0.4h-2.4c-0.2,0-0.4,0.2-0.4,0.4S13.7,12.3,13.9,12.3z"
				/>
			<path class="st1" d="M13.9,13.2h2.4c0.2,0,0.4-0.2,0.4-0.4c0-0.2-0.2-0.4-0.4-0.4h-2.4c-0.2,0-0.4,0.2-0.4,0.4
				C13.6,13.1,13.7,13.2,13.9,13.2z"/>
			<path class="st1" d="M19.5,15.7c0,0.2,0.2,0.4,0.4,0.4h2.4c0.2,0,0.4-0.2,0.4-0.4c0-0.2-0.2-0.4-0.4-0.4h-2.4
				C19.6,15.4,19.5,15.5,19.5,15.7z"/>
			<path class="st1" d="M17.3,12.1c0,0.2-0.1,0.3-0.1,0.5c0,1.2,1,2.2,2.2,2.2c1.2,0,2.2-1,2.2-2.2c0-1.2-1-2.2-2.2-2.2
				c-0.2-0.4-0.7-0.8-1.2-0.8c-0.8,0-1.4,0.6-1.4,1.4C16.8,11.5,17,11.8,17.3,12.1z M18.2,11.7 M18.2,10.3c0.2,0,0.3,0.1,0.5,0.2
				c-0.4,0.2-0.8,0.5-1.1,0.8c0-0.1-0.1-0.2-0.1-0.3C17.5,10.7,17.9,10.3,18.2,10.3z"/>
			<path class="st1" d="M11.5,14.2c0.1,0.1,0.2,0.1,0.3,0.1c0.1,0,0.2,0,0.3-0.1l1.2-1.2c0.1-0.1,0.1-0.4,0-0.5L12,11.2
				c-0.1-0.1-0.4-0.1-0.5,0l-1.2,1.2c-0.1,0.1-0.1,0.4,0,0.5L11.5,14.2z M11.7,12l0.7,0.7l-0.7,0.7L11,12.7L11.7,12z"/>
			<path class="st0" d="M21,12.6c0,0.8-0.7,1.5-1.5,1.5c-0.8,0-1.5-0.7-1.5-1.5c0-0.1,0-0.1,0-0.2c0.1,0,0.2,0,0.3,0
				c0.8,0,1.4-0.6,1.4-1.3C20.4,11.2,21,11.8,21,12.6z"/>
			<path class="st0" d="M18.2,11.7C18.2,11.7,18.2,11.7,18.2,11.7c0.2-0.2,0.4-0.4,0.7-0.5C18.9,11.5,18.6,11.7,18.2,11.7z"/>
		</g>
	</g>
</g>
</svg>
