<?xml version="1.0" encoding="utf-8"?>
<!-- Generator: Adobe Illustrator 19.1.0, SVG Export Plug-In . SVG Version: 6.00 Build 0)  -->
<svg version="1.1" id="Calque_1" xmlns="http://www.w3.org/2000/svg" xmlns:xlink="http://www.w3.org/1999/xlink" x="0px" y="0px"
	 viewBox="0 0 30 40" style="enable-background:new 0 0 30 40;" xml:space="preserve">
<style type="text/css">
	.st0{fill:#4033C1;}
	.st1{fill:#8E8EF4;}
	.st2{fill:#FFFFFF;}
</style>
<g>
	<path class="st0" d="M25.5,21.6L15.1,39.6L4.8,21.8C2.6,17.9,1.9,13.3,3.1,9c1.3-4.4,5.4-8.2,12.2-8.2S26.5,5.2,27.5,10
		C28.3,13.9,27.5,18.1,25.5,21.6z"/>
	<g>
		<path class="st1" d="M15.2,23.5c-5.4,0-9.9-4.4-9.9-9.9s4.4-9.9,9.9-9.9S25,8.2,25,13.6S20.6,23.5,15.2,23.5z"/>
		<path class="st2" d="M15.2,4.6c-5,0-9.1,4.1-9.1,9.1s4.1,9.1,9.1,9.1s9.1-4.1,9.1-9.1S20.1,4.6,15.2,4.6z"/>
		<path class="st1" d="M15.2,15.7c-1.1,0-2-0.9-2-2c0-1.1,0.9-2,2-2c1.1,0,2,0.9,2,2C17.2,14.8,16.3,15.7,15.2,15.7z"/>
		<g>
			<g>
				<path class="st1" d="M16.7,11c-0.1,0-0.1,0-0.2,0c-0.9-0.4-1.9-0.4-2.7,0c-0.1,0.1-0.2,0.1-0.3,0c-0.1,0-0.2-0.1-0.2-0.2
					l-2.1-4.1c-0.1-0.2,0-0.4,0.2-0.6c1.2-0.6,2.5-0.9,3.8-0.9s2.6,0.3,3.8,0.9c0.2,0.1,0.3,0.4,0.2,0.6l-2.1,4.1
					c0,0.1-0.1,0.2-0.2,0.2C16.8,10.9,16.7,11,16.7,11z"/>
			</g>
			<g>
				<path class="st1" d="M15.2,22.1c-1.3,0-2.6-0.3-3.8-0.9c-0.2-0.1-0.3-0.4-0.2-0.6l2.1-4.1c0-0.1,0.1-0.2,0.2-0.2
					c0.1,0,0.2,0,0.3,0c0.9,0.4,1.9,0.4,2.7,0c0.1,0,0.2-0.1,0.3,0c0.1,0,0.2,0.1,0.2,0.2l2.1,4.1c0.1,0.2,0,0.4-0.2,0.6
					C17.8,21.8,16.5,22.1,15.2,22.1z"/>
			</g>
		</g>
		<g>
			<g>
				<path class="st1" d="M22.3,17.7c-0.1,0-0.1,0-0.2,0l-4.1-2.1c-0.1,0-0.2-0.1-0.2-0.2c0-0.1,0-0.2,0-0.3c0.2-0.4,0.3-0.9,0.3-1.4
					c0-0.5-0.1-0.9-0.3-1.4c0-0.1-0.1-0.2,0-0.3s0.1-0.2,0.2-0.2l4.1-2.1c0.2-0.1,0.4,0,0.6,0.2c0.6,1.2,0.9,2.5,0.9,3.8
					c0,1.3-0.3,2.6-0.9,3.8C22.6,17.6,22.5,17.7,22.3,17.7z"/>
			</g>
			<g>
				<path class="st1" d="M8,17.7c-0.1,0-0.3-0.1-0.4-0.2C7,16.3,6.7,15,6.7,13.6c0-1.3,0.3-2.6,0.9-3.8C7.7,9.6,8,9.5,8.2,9.6
					l4.1,2.1c0.1,0,0.2,0.1,0.2,0.2c0,0.1,0,0.2,0,0.3c-0.2,0.4-0.3,0.9-0.3,1.4c0,0.5,0.1,0.9,0.3,1.4c0.1,0.1,0.1,0.2,0,0.3
					c0,0.1-0.1,0.2-0.2,0.2l-4.1,2.1C8.1,17.7,8,17.7,8,17.7z"/>
			</g>
		</g>
		<path class="st1" d="M22.8,7.2c-0.5,0-1.2-0.2-1.9-0.5c-0.2-0.1-0.3-0.3-0.2-0.6c0.1-0.2,0.3-0.3,0.6-0.2c1,0.5,1.7,0.6,2.2,0.3
			c0.7-0.4,0.7-1.6,0.7-2c0-0.2,0.2-0.4,0.4-0.4c0.2,0,0.4,0.2,0.4,0.4c0,0.1,0.1,2-1.1,2.7C23.6,7.1,23.2,7.2,22.8,7.2z"/>
	</g>
	<path class="st0" d="M12.1,6.7l1.7,3.4c0.9-0.3,1.9-0.3,2.7,0l1.7-3.4C16.3,5.8,14,5.8,12.1,6.7z"/>
	<path class="st0" d="M18.8,15l3.4,1.7c0.4-1,0.6-2,0.6-3.1c0-1.1-0.2-2.1-0.6-3.1l-3.4,1.7c0.2,0.4,0.3,0.9,0.3,1.4
		C19,14.1,19,14.6,18.8,15z"/>
	<path class="st0" d="M12.1,20.6c1,0.4,2,0.6,3.1,0.6c1.1,0,2.1-0.2,3.1-0.6l-1.7-3.4c-0.9,0.3-1.9,0.3-2.7,0L12.1,20.6z"/>
	<path class="st0" d="M8.2,10.6c-0.4,1-0.6,2-0.6,3.1c0,1.1,0.2,2.1,0.7,3.1l3.4-1.7c-0.2-0.4-0.3-0.9-0.3-1.4
		c0-0.5,0.1-0.9,0.3-1.4L8.2,10.6z"/>
	<circle class="st2" cx="15.2" cy="13.6" r="1.2"/>
</g>
</svg>
