<?xml version="1.0" encoding="utf-8"?>
<!-- Generator: Adobe Illustrator 19.1.0, SVG Export Plug-In . SVG Version: 6.00 Build 0)  -->
<svg version="1.1" id="Calque_1" xmlns="http://www.w3.org/2000/svg" xmlns:xlink="http://www.w3.org/1999/xlink" x="0px" y="0px"
	 viewBox="0 0 30 40" style="enable-background:new 0 0 30 40;" xml:space="preserve">
<style type="text/css">
	.st0{fill:#4033C1;}
	.st1{fill:#8E8EF4;}
	.st2{fill:#FFFFFF;}
</style>
<g>
	<path class="st0" d="M25.5,21.6L15.1,39.6L4.8,21.8C2.6,17.9,1.9,13.3,3.1,9c1.3-4.4,5.4-8.2,12.2-8.2S26.5,5.2,27.5,10
		C28.3,13.9,27.5,18.1,25.5,21.6z"/>
	<g>
		<path class="st1" d="M21,7.8h-0.1V6.5c0-0.7-0.6-1.3-1.3-1.3c-0.7,0-1.3,0.6-1.3,1.3v1.3h-1.9V6.5c0-0.7-0.6-1.3-1.3-1.3
			c-0.7,0-1.3,0.6-1.3,1.3v1.3h-1.9V6.5c0-0.7-0.6-1.3-1.3-1.3c-0.7,0-1.3,0.6-1.3,1.3v1.3H9.2c-1.3,0-2.4,1.1-2.4,2.4v9.9
			c0,1.3,1.1,2.4,2.4,2.4H21c1.3,0,2.4-1.1,2.4-2.4v-9.9C23.4,8.9,22.4,7.8,21,7.8z M9.2,8.5h0.1v1c0,0.7,0.6,1.3,1.3,1.3
			c0.7,0,1.3-0.6,1.3-1.3v-1h1.9v1c0,0.7,0.6,1.3,1.3,1.3c0.7,0,1.3-0.6,1.3-1.3v-1h1.9v1c0,0.7,0.6,1.3,1.3,1.3
			c0.7,0,1.3-0.6,1.3-1.3v-1H21c0.9,0,1.7,0.8,1.7,1.7v2.1H7.5v-2.1C7.5,9.3,8.2,8.5,9.2,8.5z"/>
		<path class="st2" d="M21,21.7H9.2c-0.9,0-1.7-0.8-1.7-1.7v-7h15.2v7C22.7,21,22,21.7,21,21.7z"/>
		<path class="st0" d="M9.3,20.1H21v-5.8H9.3V20.1z"/>
		<rect x="10" y="17.6" class="st2" width="1.5" height="1.8"/>
		<rect x="16.6" y="17.6" class="st1" width="1.4" height="1.8"/>
		<rect x="14.5" y="17.6" class="st2" width="1.4" height="1.8"/>
		<rect x="16.6" y="15" class="st2" width="1.4" height="1.9"/>
		<rect x="14.5" y="15" class="st2" width="1.4" height="1.9"/>
		<rect x="12.3" y="15" class="st1" width="1.4" height="1.9"/>
		<rect x="12.3" y="17.6" class="st2" width="1.4" height="1.8"/>
		<polygon class="st2" points="18.8,19.4 18.8,17.6 20.3,17.6 20.3,19.4 18.8,19.4 		"/>
		<rect x="18.8" y="15" class="st1" width="1.5" height="1.9"/>
		<rect x="10" y="15" class="st2" width="1.5" height="1.9"/>
	</g>
</g>
</svg>
