<?xml version="1.0" encoding="utf-8"?>
<!-- Generator: Adobe Illustrator 19.1.0, SVG Export Plug-In . SVG Version: 6.00 Build 0)  -->
<svg version="1.1" id="Calque_1" xmlns="http://www.w3.org/2000/svg" xmlns:xlink="http://www.w3.org/1999/xlink" x="0px" y="0px"
	 viewBox="0 0 30 40" style="enable-background:new 0 0 30 40;" xml:space="preserve">
<style type="text/css">
	.st0{fill:#4033C1;}
	.st1{fill:#8E8EF4;}
	.st2{fill:#FFFFFF;}
</style>
<g>
	<path class="st0" d="M25.3,21.4L14.9,39.3L4.7,21.6C2.5,17.7,1.8,13.1,3,8.9c1.2-4.4,5.4-8.1,12.1-8.1s11.2,4.4,12.1,9.1
		C28,13.8,27.3,17.9,25.3,21.4z"/>
	<g>
		<g>
			<g>
				<path class="st1" d="M23.6,8.3H7.3C7.1,8.3,7,8.5,7,8.7v8.9c0,0.2,0.2,0.4,0.4,0.4h2.3c0.1,0.3,0.2,0.5,0.4,0.8
					c-0.9,0.5-1.6,1.5-1.6,2.6v1.1c0,0.2,0.2,0.4,0.4,0.4s0.4-0.2,0.4-0.4v-1.1c0-1.2,1-2.2,2.2-2.2h1.1c0.6,0,1.1,0.2,1.5,0.6
					c0,0,0.1,0.1,0.1,0.1c0.4,0.4,0.6,0.9,0.6,1.5v1.1c0,0.2,0.2,0.4,0.4,0.4c0.2,0,0.4-0.2,0.4-0.4v-1.1c0-0.7-0.2-1.3-0.6-1.8
					c0.4-0.6,1.1-0.9,1.8-0.9h1.1c1.2,0,2.2,1,2.2,2.2v1.1c0,0.2,0.2,0.4,0.4,0.4c0.2,0,0.4-0.2,0.4-0.4v-1.1c0-1.2-0.8-2.3-1.8-2.7
					c0-0.1,0.1-0.1,0.1-0.2h4.9c0.2,0,0.4-0.2,0.4-0.4V8.7C23.9,8.5,23.8,8.3,23.6,8.3z M11.3,18.4c-0.2,0-0.4,0-0.6,0.1
					c-0.3-0.4-0.5-1-0.5-1.4c0-0.8,0.7-1.5,1.5-1.5c0.8,0,1.5,0.7,1.5,1.5c0,0.4-0.2,1-0.5,1.4c-0.1,0-0.2,0-0.4,0H11.3z M14.1,19
					c-0.2-0.2-0.4-0.3-0.7-0.4c0.1-0.2,0.2-0.4,0.3-0.7h1.2c0.1,0.1,0.1,0.2,0.2,0.3C14.7,18.4,14.4,18.6,14.1,19z M17.5,17.9h-1.1
					c-0.2,0-0.4,0-0.6,0.1c-0.3-0.4-0.5-1-0.5-1.4c0-0.8,0.7-1.5,1.5-1.5c0.8,0,1.5,0.7,1.5,1.5c0,0.4-0.2,1-0.5,1.4
					C17.8,17.9,17.6,17.9,17.5,17.9z"/>
			</g>
			<path class="st2" d="M23.2,17.2h-4.3C19,17,19,16.7,19,16.5c0-1.2-1-2.2-2.2-2.2s-2.2,1-2.2,2.2c0,0.2,0,0.4,0.1,0.7h-0.8
				c0-0.1,0-0.1,0-0.2c0-1.2-1-2.2-2.2-2.2s-2.2,1-2.2,2.2c0,0.1,0,0.1,0,0.2H7.7V9h15.5L23.2,17.2z"/>
			<path class="st1" d="M13.9,12.2h2.4c0.2,0,0.4-0.2,0.4-0.4s-0.2-0.4-0.4-0.4h-2.4c-0.2,0-0.4,0.2-0.4,0.4S13.7,12.2,13.9,12.2z"
				/>
			<path class="st1" d="M13.9,13.1h2.4c0.2,0,0.4-0.2,0.4-0.4c0-0.2-0.2-0.4-0.4-0.4h-2.4c-0.2,0-0.4,0.2-0.4,0.4
				C13.6,12.9,13.7,13.1,13.9,13.1z"/>
			<path class="st1" d="M19.4,15.5c0,0.2,0.2,0.4,0.4,0.4h2.4c0.2,0,0.4-0.2,0.4-0.4c0-0.2-0.2-0.4-0.4-0.4h-2.4
				C19.6,15.2,19.4,15.3,19.4,15.5z"/>
			<path class="st1" d="M17.3,11.9c0,0.2-0.1,0.3-0.1,0.5c0,1.2,1,2.2,2.2,2.2c1.2,0,2.2-1,2.2-2.2c0-1.2-1-2.2-2.2-2.2
				c-0.2-0.4-0.7-0.7-1.2-0.7c-0.8,0-1.4,0.6-1.4,1.4C16.8,11.3,17,11.7,17.3,11.9z M18.2,11.6 M18.2,10.2c0.2,0,0.3,0.1,0.5,0.2
				c-0.4,0.2-0.8,0.5-1.1,0.8c0-0.1-0.1-0.2-0.1-0.3C17.5,10.5,17.8,10.2,18.2,10.2z"/>
			<path class="st1" d="M11.5,14c0.1,0.1,0.2,0.1,0.2,0.1c0.1,0,0.2,0,0.2-0.1l1.2-1.2c0.1-0.1,0.1-0.4,0-0.5L12,11.1
				c-0.1-0.1-0.4-0.1-0.5,0l-1.2,1.2c-0.1,0.1-0.1,0.4,0,0.5L11.5,14z M11.8,11.8l0.7,0.7l-0.7,0.7L11,12.6L11.8,11.8z"/>
			<path class="st0" d="M20.9,12.5c0,0.8-0.7,1.5-1.5,1.5s-1.5-0.7-1.5-1.5c0-0.1,0-0.1,0-0.2c0.1,0,0.2,0,0.3,0
				c0.7,0,1.4-0.6,1.4-1.3C20.4,11.1,20.9,11.7,20.9,12.5z"/>
			<path class="st0" d="M18.2,11.6C18.2,11.6,18.2,11.6,18.2,11.6c0.2-0.2,0.4-0.4,0.7-0.5C18.8,11.4,18.5,11.6,18.2,11.6z"/>
		</g>
	</g>
</g>
</svg>
