<?xml version="1.0" encoding="utf-8"?>
<!-- Generator: Adobe Illustrator 19.1.0, SVG Export Plug-In . SVG Version: 6.00 Build 0)  -->
<svg version="1.1" id="Calque_1" xmlns="http://www.w3.org/2000/svg" xmlns:xlink="http://www.w3.org/1999/xlink" x="0px" y="0px"
	 viewBox="0 0 1200 1080" style="enable-background:new 0 0 1200 1080;" xml:space="preserve">
<style type="text/css">
	.st0{fill:#8E8EF4;}
	.st1{fill:#3D38E8;}
</style>
<path id="_x37_5104_PARIS-4E-ARRONDISSEMENT_1_" class="st0" d="M788.8,399.2l-46.2-27.8c-1.8-1.1-2.5-3.3-1.6-5.2l11.6-25.4
	c1-2.1,3.5-3,5.6-1.9l43.8,22.5c1.2,0.6,2,1.7,2.2,3l1.1,7.1c0.1,0.8,0,1.6-0.3,2.3l-10.3,23.6C793.7,399.6,790.9,400.4,788.8,399.2
	z"/>
<path id="_x37_5107_PARIS-7E-ARRONDISSEMENT_1_" class="st0" d="M368,396l-22.4-3.4c-0.8-0.1-1.5-0.5-2.1-1l-43.1-38.9
	c-2-1.8-1.8-4.9,0.4-6.4l26.7-18.5c0.7-0.5,1.6-0.7,2.4-0.7l50.2,1.6c0.6,0,1.1,0.2,1.6,0.4l28.8,13.7c1.9,0.9,2.8,3.1,2.1,5.1
	l-8,22.1c-0.3,0.8-0.8,1.4-1.4,1.9L371,395.3C370.1,395.9,369,396.1,368,396z"/>
<path id="_x37_5110_PARIS-10E-ARRONDISSEMENT_1_" class="st1" d="M778.9,121.3c-0.9,0.5-2,0.6-3,0.3l-25.1-7.2l-14.1-4.6
	c-1.8-0.6-3-2.3-2.8-4.2l4.1-47.3c0.2-2,1.8-3.6,3.8-3.7l37.1-2.5c0.5,0,1,0,1.5,0.2l10.2,3.2c1.1,0.4,2,1.2,2.5,2.2l18.8,42.2
	c0.9,2,0.1,4.3-1.8,5.3L778.9,121.3z"/>
<path id="_x37_5104_PARIS-4E-ARRONDISSEMENT_3_" class="st0" d="M377.2,1027L331,999.2c-1.8-1.1-2.5-3.3-1.6-5.2l11.6-25.4
	c1-2.1,3.5-3,5.6-1.9l43.8,22.5c1.2,0.6,2,1.7,2.2,3l1.1,7.1c0.1,0.8,0,1.6-0.3,2.3l-10.3,23.6C382,1027.4,379.3,1028.3,377.2,1027z
	"/>
<path id="_x37_5107_PARIS-7E-ARRONDISSEMENT_3_" class="st0" d="M857.7,875.1l-22.4-3.4c-0.8-0.1-1.5-0.5-2.1-1l-43.1-38.9
	c-2-1.8-1.8-4.9,0.4-6.4l26.7-18.5c0.7-0.5,1.6-0.7,2.4-0.7l50.2,1.6c0.6,0,1.1,0.2,1.6,0.4l28.8,13.7c1.9,0.9,2.8,3.1,2.1,5.1
	l-8,22.1c-0.3,0.8-0.8,1.4-1.4,1.9l-32.2,23.4C859.8,875,858.8,875.3,857.7,875.1z"/>
<path id="_x37_5110_PARIS-10E-ARRONDISSEMENT_3_" class="st1" d="M605.5,618.9c-0.9,0.5-2,0.6-3,0.3l-25.1-7.2l-14.1-4.6
	c-1.8-0.6-3-2.3-2.8-4.2l4.1-47.3c0.2-2,1.8-3.6,3.8-3.7l37.1-2.5c0.5,0,1,0,1.5,0.2l10.2,3.2c1.1,0.4,2,1.2,2.5,2.2l18.8,42.2
	c0.9,2,0.1,4.3-1.8,5.3L605.5,618.9z"/>
</svg>
