<?xml version="1.0" encoding="utf-8"?>
<!-- Generator: Adobe Illustrator 19.1.0, SVG Export Plug-In . SVG Version: 6.00 Build 0)  -->
<svg version="1.1" id="Calque_1" xmlns="http://www.w3.org/2000/svg" xmlns:xlink="http://www.w3.org/1999/xlink" x="0px" y="0px"
	 viewBox="0 0 320 240" style="enable-background:new 0 0 320 240;" xml:space="preserve">
<g>
	<g>
		<g>
			<g id="g7356_8_">
				<g id="g7362_8_" transform="translate(428.0269,191.3445)">
					<path id="path7364_8_" d="M-268.6-132.2c-4.4,0-8-3.6-8-8c0-4.4,3.6-8,8-8c4.4,0,8,3.6,8,8
						C-260.7-135.8-264.2-132.2-268.6-132.2 M-268.7-176.2c-19.9,0-36,16.1-36,36c0,19.9,16.1,36,36,36c19.9,0,36-16.1,36-36
						C-232.7-160.1-248.8-176.2-268.7-176.2"/>
				</g>
				<g id="g7366_8_" transform="translate(431.0455,179.5372)">
					<path id="path7368_8_" d="M-246.2-20.9l1.4-0.7c1.4-0.7,8.5-4.7,7.1-9.7c-1.1-3.8-5.9-5.4-5.9-5.4s-30-9-48.6-15.1
						c-19.3-6.3-19.9-20-20-22.5c-1.1-15.2,10.5-21.5,12-22.3l0.9-0.4l0.3,0.5l-0.6,0.3c-1,0.5-6.7,3.7-5.9,7.9
						c0.8,4,5.8,5.4,5.8,5.4s30,9,48.6,15.1c19.3,6.3,19.9,20,20,22.5c1.2,16.8-11.3,23.2-13.3,24.2l-1.5,0.7L-246.2-20.9z"/>
				</g>
				<g id="g7370_8_" transform="translate(413.0009,177.73441)">
					<path id="path7372_8_" d="M-380.3-3.9c-1.7-2.4-4.7-3.8-7.6-3.8c-2.5,0-4.8,0.9-6.7,2.5c-2,1.8-3.3,4.6-3.3,7.3
						c0,2.4,1.1,5,2.8,6.7c1.9,2.1,4.7,3.2,7.4,3.2c3.4,0,6.9-2.1,8.4-5.2h-12v-5h18.8v0.6c0,8.4-7.1,14.8-15.3,14.8
						c-8.3,0-15.4-6.5-15.4-14.9c0-8.5,7-15.1,15.3-15.1c5.8,0,11.8,3.5,14,9L-380.3-3.9z"/>
				</g>
				<g id="g7374_8_" transform="translate(417.5009,178.8027)">
					<path id="path7376_8_" d="M-346.9-13.9c-8.3,0-15,6.7-15,15.1c0,8.3,6.8,14.9,15,14.9c8.2,0,15-6.7,15-15
						C-331.8-7.3-338.6-13.9-346.9-13.9 M-337.2,1.1c0,5.4-4.4,9.8-9.7,9.8c-5.3,0-9.7-4.4-9.7-9.7c0-5.5,4.3-9.9,9.7-9.8l0-0.1
						C-341.5-8.8-337.2-4.3-337.2,1.1"/>
				</g>
				<g id="g7378_8_" transform="translate(422.2182,177.4252)">
					<path id="path7380_8_" d="M-311.8-1v-5.9h1c1.1,0,2.5-0.2,3.5,0.3c1.1,0.4,1.8,1.4,1.8,2.5c0,1.1-0.6,2.2-1.6,2.6
						c-1,0.5-2.5,0.4-3.6,0.4H-311.8z M-317.1,16.8h7.2c2.8-0.1,5.7-0.2,8-1.9c2.2-1.7,3.5-4.1,3.5-6.9c0-3.3-1.8-6-4.9-7
						c2.1-1,3.2-3.2,3.2-5.5c0-2.7-1.7-5.3-4-6.5c-2.4-1.2-5.1-1.1-7.7-1.1h-5.2V16.8z M-311.8,11.6V4.2h2.3c1.3,0,2.6,0,3.8,0.6
						c1.2,0.7,1.9,1.6,1.9,3c0,1.2-0.4,2.1-1.4,2.8c-1.4,0.9-2.8,1-4.4,1H-311.8z"/>
				</g>
				<g id="g7382_8_" transform="translate(426.3248,178.7382)">
					<path id="path7384_8_" d="M-281.3-13.3h15.5v5.2h-10.1v6.6h9.7v5.2h-9.7v6.6h10.1v5.2h-15.5V-13.3z"/>
				</g>
				<g id="g7386_8_" transform="translate(430.85181,178.7382)">
					<path id="path7388_8_" d="M-247.6-13.3h5.3v23.6h8.8v5.2h-14.1V-13.3z"/>
				</g>
				<path id="path7390_8_" d="M217.2,165.4h5.3v28.8h-5.3V165.4z"/>
				<g id="g7392_8_" transform="translate(438.3618,178.7382)">
					<path id="path7394_8_" d="M-191.8-13.3h6l12,21.1v-21.1h5.3v28.8h-5.9l-12.1-21v21h-5.3V-13.3z"/>
				</g>
				<g id="g7396_8_" transform="translate(444.31709,176.2829)">
					<path id="path7398_8_" d="M-147.6,9.8c0,2.3,1.9,3.6,4,3.6c2,0,3.8-1.5,3.8-3.6c0-3.2-2.6-4.1-5-4.9c-1.9-0.6-3.5-1.2-5-2.6
						c-1.4-1.5-2.3-3.5-2.3-5.5c0-4.7,3.9-8.2,8.5-8.2c4.4,0,8.5,3.7,8.4,8.2h-5.5c-0.1-1.8-1.6-3-3.2-3c-1.8,0-2.9,1.3-2.8,3
						c0,2.1,1.9,2.9,3.6,3.5c2,0.7,4,1.3,5.6,2.6c2.1,1.6,3,3.7,3,6.6c0,5.1-4.2,9.1-9.4,9.1c-4.9,0-9.3-3.8-9.3-8.8L-147.6,9.8z"/>
				</g>
				<g id="g7400_8_" transform="translate(411.5116,171.9278)">
					<path id="path7402_8_" d="M-391.4,50.9h-10V31.2h2.1v18.2h7.9V50.9z"/>
				</g>
				<g id="g7404_8_" transform="translate(411.92149,174.2493)">
					<path id="path7406_8_" d="M-388.3,29h2l-2,5.4h-1.1L-388.3,29z"/>
				</g>
				<g id="g7408_8_" transform="translate(413.66319,174.3492)">
					<path id="path7410_8_" d="M-375.4,28.1h-1.5l2.9-2.6h2.7L-375.4,28.1z M-372.2,37.5v1.4h-6.7V47h8.9v1.4H-381V28.8h10.6v1.4
						h-8.6v7.3H-372.2z"/>
				</g>
				<g id="g7412_8_" transform="translate(417.2188,172.4864)">
					<path id="path7414_8_" d="M-349,45.6c-1.4,2.5-4.5,5.1-8.8,5.1c-2.9,0-5.5-1-7.2-2.5c-2-1.8-3.1-4.3-3.1-7.8
						c0-3.3,1.2-5.8,3.1-7.6c1.9-1.7,4.4-2.6,7.3-2.6c4.1,0,6.9,2,8.3,4.7l-2.1,0.4c-1-2-2.9-3.8-6.2-3.8c-4.2,0-8.3,2.5-8.3,8.9
						c0,6.2,4,8.8,8.2,8.8c3.7,0,5.9-2.6,6.7-4.2L-349,45.6z"/>
				</g>
				<g id="g7416_8_" transform="translate(417.69501,173.09351)">
					<path id="path7418_8_" d="M-345.4,39.9c0,7,4.7,10.2,10.3,10.2c5.6,0,10.3-3.2,10.3-10.2c0-7-4.7-10.2-10.3-10.2
						C-340.7,29.7-345.4,32.9-345.4,39.9L-345.4,39.9z M-335.1,31c4.2,0,8.2,2.6,8.2,8.9c0,6.2-4,8.8-8.2,8.8
						c-4.2,0-8.2-2.6-8.2-8.8C-343.3,33.6-339.3,31-335.1,31L-335.1,31z"/>
				</g>
				<g id="g7420_8_" transform="translate(422.0479,171.9278)">
					<path id="path7422_8_" d="M-313.1,50.9h-10V31.2h2.1v18.2h7.9V50.9z"/>
				</g>
				<g id="g7424_8_" transform="translate(423.849,173.2281)">
					<path id="path7426_8_" d="M-299.7,38.6v1.4h-6.7v8.1h8.9v1.4h-10.9V29.9h10.7v1.4h-8.6v7.3H-299.7z"/>
				</g>
				<g id="g7428_8_" transform="translate(426.49471,171.9278)">
					<path id="path7430_8_" d="M-280,50.9c7,0,9.9-3.6,9.9-9.9c0-6.4-3.1-9.8-9.9-9.8h-6.2v19.7H-280z M-284.3,49.5V32.6h4.1
						c5.6,0,7.9,3,7.9,8.4c0,5.6-2.6,8.4-7.9,8.4L-284.3,49.5z"/>
				</g>
				<g id="g7432_8_" transform="translate(429.5732,173.2281)">
					<path id="path7434_8_" d="M-257.1,38.6v1.4h-6.7v8.1h8.9v1.4H-266V29.9h10.6v1.4h-8.6v7.3H-257.1z"/>
				</g>
				<g id="g7436_8_" transform="translate(432.5676,171.9278)">
					<path id="path7438_8_" d="M-234.9,50.9h-10V31.2h2.1v18.2h7.9V50.9z"/>
				</g>
				<g id="g7440_8_" transform="translate(432.9877,174.18559)">
					<path id="path7442_8_" d="M-231.8,29.6h2l-2,5.4h-1.1L-231.8,29.6z"/>
				</g>
				<path id="path7444_8_" d="M210.9,203.2h2.1v19.7h-2.1V203.2z"/>
				<g id="g7446_8_" transform="translate(436.7939,172.1763)">
					<path id="path7448_8_" d="M-203.5,48.5c1.2-3.2,3.5-8.9,7.2-17.6h3.2v19.7h-1.9c0-8.9,0-14.9,0.1-18.1h-0.1
						c-1.2,3.2-3.7,9-7.5,18.1h-2c-3.7-8.9-6.2-14.9-7.5-18.1h-0.1c0.1,3.2,0.1,9.2,0.1,18.1h-1.9V31h3.2
						C-207.1,39.7-204.8,45.3-203.5,48.5L-203.5,48.5z"/>
				</g>
				<g id="g7450_8_" transform="translate(440.34821,172.6653)">
					<path id="path7452_8_" d="M-177.1,43.9l2.5,6.2h2.3l-8.4-19.7h-2.6l-8.3,19.7h2.3l2.5-6.2H-177.1z M-177.7,42.5h-8.4l2.1-5.4
						c0.7-1.7,1.4-3.4,2-5.3h0.1c0.7,1.9,1.4,3.6,2,5.4L-177.7,42.5z"/>
				</g>
				<g id="g7454_8_" transform="translate(443.7092,172.1759)">
					<path id="path7456_8_" d="M-152.1,48.6c-2.2,1.5-5.1,2.5-8.8,2.5c-6.4,0-11-3.8-11-10.2c0-7.3,5.7-10.2,11.1-10.2
						c3.7,0,6.5,1.4,8.5,3.9l-2.1,0.6c-1.6-2-3.3-3.1-6.4-3.1c-3.9,0-9.1,2.3-9.1,8.9c0,5.6,3.9,8.9,9.1,8.9c2.5,0,4.9-0.6,6.5-1.7
						v-5.2h-5.9v-1.4h8V48.6z"/>
				</g>
				<g id="g7458_8_" transform="translate(445.5966,173.2281)">
					<path id="path7460_8_" d="M-138.1,38.6v1.4h-6.7v8.1h8.8v1.4h-10.9V29.9h10.6v1.4h-8.6v7.3H-138.1z"/>
				</g>
			</g>
		</g>
	</g>
</g>
</svg>
